<svg width="36" height="27" viewBox="0 0 36 27" fill="none" xmlns="http://www.w3.org/2000/svg">
    <path fill-rule="evenodd" clip-rule="evenodd" d="M34.5656 26.1823H1.38091C0.963835 26.1823 0.626709 25.9002 0.626709 25.5512C0.626709 25.2022 0.963835 24.9201 1.38091 24.9201H34.5656C34.9827 24.9201 35.3198 25.2022 35.3198 25.5512C35.3198 25.9002 34.9827 26.1823 34.5656 26.1823ZM11.9397 19.8717C12.3567 19.8717 12.6939 20.1538 12.6939 20.5027C12.6939 20.8517 12.3567 21.1338 11.9397 21.1338H5.90609C5.48902 21.1338 5.15189 20.8517 5.15189 20.5027C5.15189 20.1538 5.48902 19.8717 5.90609 19.8717H6.66029V11.6679H5.90609C5.48902 11.6679 5.15189 11.3859 5.15189 11.0369C5.15189 10.6885 5.48902 10.4058 5.90609 10.4058H11.9397C12.3567 10.4058 12.6939 10.6885 12.6939 11.0369C12.6939 11.3859 12.3567 11.6679 11.9397 11.6679H11.1855V19.8717H11.9397ZM9.67708 11.6679H8.16868V19.8717H9.67708V11.6679ZM20.99 19.8717C21.4071 19.8717 21.7442 20.1538 21.7442 20.5027C21.7442 20.8517 21.4071 21.1338 20.99 21.1338H14.9565C14.5394 21.1338 14.2023 20.8517 14.2023 20.5027C14.2023 20.1538 14.5394 19.8717 14.9565 19.8717H15.7107V11.6679H14.9565C14.5394 11.6679 14.2023 11.3859 14.2023 11.0369C14.2023 10.6885 14.5394 10.4058 14.9565 10.4058H20.99C21.4071 10.4058 21.7442 10.6885 21.7442 11.0369C21.7442 11.3859 21.4071 11.6679 20.99 11.6679H20.2358V19.8717H20.99ZM18.7274 11.6679H17.2191V19.8717H18.7274V11.6679ZM33.0572 23.027C33.0572 23.3759 32.7201 23.658 32.303 23.658H3.6435C3.22643 23.658 2.8893 23.3759 2.8893 23.027C2.8893 22.678 3.22643 22.3959 3.6435 22.3959H32.303C32.7201 22.3959 33.0572 22.678 33.0572 23.027ZM30.0404 19.8717C30.4575 19.8717 30.7946 20.1538 30.7946 20.5027C30.7946 20.8517 30.4575 21.1338 30.0404 21.1338H24.0068C23.5898 21.1338 23.2526 20.8517 23.2526 20.5027C23.2526 20.1538 23.5898 19.8717 24.0068 19.8717H24.761V11.6679H24.0068C23.5898 11.6679 23.2526 11.3859 23.2526 11.0369C23.2526 10.6885 23.5898 10.4058 24.0068 10.4058H30.0404C30.4575 10.4058 30.7946 10.6885 30.7946 11.0369C30.7946 11.3859 30.4575 11.6679 30.0404 11.6679H29.2862V19.8717H30.0404ZM27.7778 11.6679H26.2694V19.8717H27.7778V11.6679ZM2.1351 7.8816L17.9733 0.663574L33.8114 7.8816V9.14372H2.1351V7.8816ZM30.4484 7.8816L17.9733 2.4848L5.45056 7.8816H30.4484Z" fill="black"/>
</svg>
