<svg width="176" height="177" viewBox="0 0 176 177" fill="none" xmlns="http://www.w3.org/2000/svg">
<path d="M88.0888 160.406C87.3659 160.41 86.6492 160.271 85.9799 159.996C85.3107 159.72 84.7019 159.315 84.1886 158.802L45.3518 120.083C39.7447 114.475 35.2948 107.805 32.2581 100.457C29.2215 93.1096 27.6582 85.2299 27.6582 77.2716C27.6582 69.3132 29.2215 61.4335 32.2581 54.086C35.2948 46.7386 39.7447 40.0684 45.3518 34.4597C56.7339 23.1371 72.089 16.7877 88.0888 16.7877C104.089 16.7877 119.444 23.1371 130.826 34.4597C136.433 40.0684 140.883 46.7386 143.919 54.086C146.956 61.4335 148.519 69.3132 148.519 77.2716C148.519 85.2299 146.956 93.1096 143.919 100.457C140.883 107.805 136.433 114.475 130.826 120.083L91.989 158.802C91.4757 159.315 90.867 159.72 90.1977 159.996C89.5284 160.271 88.8117 160.41 88.0888 160.406ZM88.0888 27.6563C74.978 27.6239 62.3913 32.8367 53.0972 42.1481C48.5199 46.7285 44.8872 52.1751 42.4083 58.1745C39.9295 64.1739 38.6533 70.6077 38.6533 77.1056C38.6533 83.6036 39.9295 90.0374 42.4083 96.0368C44.8872 102.036 48.5199 107.483 53.0972 112.063L88.0888 147.076L123.08 112.063C127.658 107.483 131.29 102.036 133.769 96.0368C136.248 90.0374 137.524 83.6036 137.524 77.1056C137.524 70.6077 136.248 64.1739 133.769 58.1745C131.29 52.1751 127.658 46.7285 123.08 42.1481C113.786 32.8367 101.2 27.6239 88.0888 27.6563Z" fill="#0090C1"/>
<path d="M88.0887 105.094C82.6565 105.094 77.3462 103.472 72.8295 100.433C68.3127 97.3939 64.7924 93.0746 62.7135 88.0211C60.6347 82.9676 60.0908 77.4068 61.1506 72.042C62.2103 66.6773 64.8262 61.7494 68.6674 57.8816C72.5086 54.0138 77.4025 51.3798 82.7304 50.3127C88.0583 49.2455 93.5808 49.7932 98.5995 51.8865C103.618 53.9797 107.908 57.5245 110.926 62.0725C113.944 66.6206 115.555 71.9676 115.555 77.4375C115.555 84.7724 112.661 91.8069 107.51 96.9934C102.359 102.18 95.3732 105.094 88.0887 105.094ZM88.0887 60.8438C84.8294 60.8438 81.6432 61.817 78.9332 63.6403C76.2231 65.4637 74.1109 68.0553 72.8636 71.0874C71.6163 74.1195 71.29 77.4559 71.9258 80.6748C72.5617 83.8937 74.1312 86.8504 76.4359 89.1711C78.7406 91.4917 81.677 93.0722 84.8737 93.7124C88.0705 94.3527 91.3839 94.0241 94.3952 92.7681C97.4064 91.5122 99.9802 89.3853 101.791 86.6565C103.602 83.9277 104.568 80.7194 104.568 77.4375C104.568 73.0366 102.832 68.8159 99.7415 65.704C96.651 62.592 92.4594 60.8438 88.0887 60.8438Z" fill="#76BDD6"/>
</svg>
