<svg width="108" height="107" viewBox="0 0 108 107" fill="none" xmlns="http://www.w3.org/2000/svg">
    <g clip-path="url(#clip0_158_166)">
        <path d="M67.5 0.0166016C45.1339 0.0166016 27 17.9826 27 40.1416C27 46.916 28.7111 53.2926 31.7081 58.8934L3.54712 86.7869L3.57075 86.807C1.37025 88.9503 0 91.9196 0 95.2198C0 101.737 5.3325 107.02 11.9104 107.02C15.2347 107.02 18.2351 105.662 20.3985 103.479L20.3917 103.472L48.5426 75.5854C54.1991 78.5646 60.6454 80.2666 67.5 80.2666C89.8661 80.2666 108 62.3006 108 40.1416C108 17.9826 89.8661 0.0166016 67.5 0.0166016ZM16.1831 99.2992C15.0964 100.416 13.5911 101.115 11.9104 101.115C8.61975 101.115 5.9535 98.4767 5.9535 95.2165C5.9535 93.5513 6.66225 92.0634 7.78612 90.9833L7.75575 90.9566L34.9785 63.9859C37.3579 67.1658 40.1929 69.9745 43.3957 72.3386L16.1831 99.2992ZM67.5 73.5825C48.8633 73.5825 33.75 58.6058 33.75 40.1449C33.75 21.6808 48.8633 6.70745 67.5 6.70745C86.1334 6.70745 101.25 21.6808 101.25 40.1449C101.25 58.6058 86.1334 73.5825 67.5 73.5825Z" fill="#0090C1"/>
        <path d="M67.5 16.7354C54.4489 16.7354 43.875 27.2147 43.875 40.1416C43.875 41.0645 44.631 41.8135 45.5625 41.8135C46.494 41.8135 47.25 41.0645 47.25 40.1416C47.25 29.0638 56.3152 20.0791 67.5 20.0791C68.4281 20.0791 69.1875 19.3301 69.1875 18.4072C69.1875 17.4844 68.4281 16.7354 67.5 16.7354Z" fill="#68C9E9"/>
    </g>
    <defs>
        <clipPath id="clip0_158_166">
            <rect width="108" height="107" fill="white"/>
        </clipPath>
    </defs>
</svg>
