<svg width="31" height="31" viewBox="0 0 31 31" fill="none" xmlns="http://www.w3.org/2000/svg">
    <path
            d="M15.2004 30.0464C12.2337 30.0464 9.33363 29.1667 6.86689 27.5184C4.40015 25.8702 2.47757 23.5275 1.34225 20.7866C0.206939 18.0457 -0.0901113 15.0298 0.488667 12.12C1.06745 9.21032 2.49606 6.53758 4.59384 4.43979C6.69163 2.342 9.36437 0.913392 12.2741 0.334614C15.1838 -0.244164 18.1998 0.0528861 20.9407 1.1882C23.6816 2.32351 26.0243 4.2461 27.6725 6.71284C29.3207 9.17957 30.2004 12.0797 30.2004 15.0464C30.2004 19.0246 28.6201 22.8399 25.807 25.653C22.994 28.466 19.1787 30.0464 15.2004 30.0464ZM15.2004 2.04639C12.6293 2.04639 10.1159 2.80883 7.97803 4.23729C5.84019 5.66575 4.17395 7.69607 3.19001 10.0715C2.20607 12.4469 1.94863 15.0608 2.45024 17.5826C2.95184 20.1043 4.18997 22.4207 6.00806 24.2388C7.82614 26.0569 10.1425 27.295 12.6643 27.7966C15.186 28.2982 17.7999 28.0408 20.1753 27.0568C22.5508 26.0729 24.5811 24.4066 26.0095 22.2688C27.438 20.131 28.2004 17.6175 28.2004 15.0464C28.2004 11.5986 26.8308 8.29198 24.3928 5.854C21.9549 3.41603 18.6483 2.04639 15.2004 2.04639Z"
            fill="#053C51"
    />
    <path
            d="M19.1397 20.5035L14.0181 15.499C13.9222 15.4045 13.8463 15.2925 13.7948 15.1693C13.7433 15.0462 13.7172 14.9143 13.718 14.7812V6.69312H15.7874V14.3667L20.6089 19.0679L19.1397 20.5035Z"
            fill="#0090C1"
    />
</svg>