<svg width="39" height="23" viewBox="0 0 39 23" fill="none" xmlns="http://www.w3.org/2000/svg">
    <path d="M29.1355 22.6907H8.14344C6.1643 22.689 4.2599 22.0003 2.81618 20.764C1.37247 19.5278 0.497431 17.8367 0.368409 16.0332C0.239386 14.2298 0.86603 12.449 2.12134 11.0518C3.37666 9.65458 5.16674 8.74543 7.12881 8.50859C7.74476 6.43275 8.99966 4.56174 10.7447 3.11739C12.4898 1.67304 14.6518 0.715936 16.9745 0.359564C19.2971 0.00319213 21.683 0.262496 23.8492 1.10673C26.0153 1.95097 27.871 3.34473 29.196 5.12275C31.7316 5.152 34.152 6.09418 35.9308 7.7444C37.7097 9.39462 38.7032 11.6194 38.6952 13.935C38.6872 16.2505 37.6784 18.4696 35.8882 20.1096C34.098 21.7495 31.6712 22.6778 29.1355 22.6925V22.6907ZM8.14344 11.0793C6.83949 11.0793 5.58895 11.5524 4.66692 12.3943C3.74489 13.2363 3.2269 14.3782 3.2269 15.5689C3.2269 16.7597 3.74489 17.9016 4.66692 18.7436C5.58895 19.5855 6.83949 20.0585 8.14344 20.0585H29.1355C30.9085 20.0392 32.6017 19.3825 33.8481 18.2307C35.0944 17.079 35.7933 15.525 35.7933 13.9059C35.7933 12.2867 35.0944 10.7327 33.8481 9.58099C32.6017 8.42924 30.9085 7.7725 29.1355 7.75316C28.9529 7.75316 28.7608 7.76106 28.5465 7.77861C28.2741 7.80007 28.0007 7.75034 27.7581 7.63522C27.5154 7.5201 27.3137 7.34434 27.1764 7.12846C26.2046 5.59768 24.7401 4.37733 22.9821 3.63334C21.2241 2.88935 19.2578 2.65782 17.3506 2.97023C15.4434 3.28264 13.6878 4.12383 12.3226 5.37942C10.9573 6.63502 10.0487 8.2441 9.72015 9.98787C9.66184 10.2996 9.48253 10.5818 9.21504 10.7827C8.94756 10.9836 8.60978 11.0899 8.26354 11.082H8.19628L8.14344 11.0793Z" fill="black"/>
</svg>
